<mxfile host="Electron" modified="2024-01-24T10:34:08.149Z" agent="Mozilla/5.0 (Windows NT 10.0; Win64; x64) AppleWebKit/537.36 (KHTML, like Gecko) draw.io/22.1.21 Chrome/120.0.6099.109 Electron/28.1.0 Safari/537.36" etag="AlzrjRtx8fp9JArHdKix" version="22.1.21" type="device">
  <diagram name="Page-1" id="oyZ4dtZLjev76OJQ1Ywi">
    <mxGraphModel dx="922" dy="575" grid="1" gridSize="10" guides="1" tooltips="1" connect="1" arrows="1" fold="1" page="1" pageScale="1" pageWidth="850" pageHeight="1100" math="0" shadow="0">
      <root>
        <mxCell id="0" />
        <mxCell id="1" parent="0" />
        <mxCell id="hgFu8f6doZ0GLa-e8cyX-4" value="" style="edgeStyle=orthogonalEdgeStyle;rounded=0;orthogonalLoop=1;jettySize=auto;html=1;" parent="1" source="hgFu8f6doZ0GLa-e8cyX-1" target="hgFu8f6doZ0GLa-e8cyX-3" edge="1">
          <mxGeometry relative="1" as="geometry" />
        </mxCell>
        <mxCell id="hgFu8f6doZ0GLa-e8cyX-1" value="START" style="rounded=1;whiteSpace=wrap;html=1;" parent="1" vertex="1">
          <mxGeometry x="365" y="30" width="120" height="40" as="geometry" />
        </mxCell>
        <mxCell id="hgFu8f6doZ0GLa-e8cyX-42" value="" style="edgeStyle=orthogonalEdgeStyle;rounded=0;orthogonalLoop=1;jettySize=auto;html=1;" parent="1" source="hgFu8f6doZ0GLa-e8cyX-3" target="hgFu8f6doZ0GLa-e8cyX-41" edge="1">
          <mxGeometry relative="1" as="geometry" />
        </mxCell>
        <mxCell id="hgFu8f6doZ0GLa-e8cyX-3" value="Generate a random number between 1 and 100" style="whiteSpace=wrap;html=1;rounded=1;" parent="1" vertex="1">
          <mxGeometry x="365" y="100" width="120" height="50" as="geometry" />
        </mxCell>
        <mxCell id="hgFu8f6doZ0GLa-e8cyX-19" value="" style="edgeStyle=orthogonalEdgeStyle;rounded=0;orthogonalLoop=1;jettySize=auto;html=1;" parent="1" edge="1">
          <mxGeometry relative="1" as="geometry">
            <mxPoint x="500" y="230" as="sourcePoint" />
            <mxPoint x="585" y="320" as="targetPoint" />
          </mxGeometry>
        </mxCell>
        <mxCell id="hgFu8f6doZ0GLa-e8cyX-24" value="" style="edgeStyle=orthogonalEdgeStyle;rounded=0;orthogonalLoop=1;jettySize=auto;html=1;" parent="1" target="hgFu8f6doZ0GLa-e8cyX-23" edge="1">
          <mxGeometry relative="1" as="geometry">
            <mxPoint x="365" y="230" as="sourcePoint" />
          </mxGeometry>
        </mxCell>
        <mxCell id="hgFu8f6doZ0GLa-e8cyX-29" value="" style="edgeStyle=orthogonalEdgeStyle;rounded=0;orthogonalLoop=1;jettySize=auto;html=1;entryX=1;entryY=0.5;entryDx=0;entryDy=0;" parent="1" target="hgFu8f6doZ0GLa-e8cyX-28" edge="1">
          <mxGeometry relative="1" as="geometry">
            <mxPoint x="585" y="380" as="sourcePoint" />
            <mxPoint x="485" y="460" as="targetPoint" />
            <Array as="points">
              <mxPoint x="585" y="460" />
            </Array>
          </mxGeometry>
        </mxCell>
        <mxCell id="hgFu8f6doZ0GLa-e8cyX-18" value="User has 5&lt;br&gt;attempts" style="whiteSpace=wrap;html=1;rounded=1;" parent="1" vertex="1">
          <mxGeometry x="520" y="320" width="120" height="60" as="geometry" />
        </mxCell>
        <mxCell id="hgFu8f6doZ0GLa-e8cyX-20" value="Hard" style="text;html=1;strokeColor=none;fillColor=none;align=center;verticalAlign=middle;whiteSpace=wrap;rounded=0;" parent="1" vertex="1">
          <mxGeometry x="500" y="200" width="60" height="30" as="geometry" />
        </mxCell>
        <mxCell id="hgFu8f6doZ0GLa-e8cyX-30" style="edgeStyle=orthogonalEdgeStyle;rounded=0;orthogonalLoop=1;jettySize=auto;html=1;entryX=0;entryY=0.5;entryDx=0;entryDy=0;" parent="1" source="hgFu8f6doZ0GLa-e8cyX-23" target="hgFu8f6doZ0GLa-e8cyX-28" edge="1">
          <mxGeometry relative="1" as="geometry">
            <mxPoint x="300" y="470" as="targetPoint" />
            <Array as="points">
              <mxPoint x="270" y="460" />
            </Array>
          </mxGeometry>
        </mxCell>
        <mxCell id="hgFu8f6doZ0GLa-e8cyX-23" value="User has 10 &lt;br&gt;attempts&amp;nbsp;" style="whiteSpace=wrap;html=1;rounded=1;" parent="1" vertex="1">
          <mxGeometry x="210" y="320" width="120" height="60" as="geometry" />
        </mxCell>
        <mxCell id="hgFu8f6doZ0GLa-e8cyX-27" value="Easy" style="text;html=1;strokeColor=none;fillColor=none;align=center;verticalAlign=middle;whiteSpace=wrap;rounded=0;" parent="1" vertex="1">
          <mxGeometry x="290" y="200" width="60" height="30" as="geometry" />
        </mxCell>
        <mxCell id="hgFu8f6doZ0GLa-e8cyX-32" value="" style="edgeStyle=orthogonalEdgeStyle;rounded=0;orthogonalLoop=1;jettySize=auto;html=1;" parent="1" source="hgFu8f6doZ0GLa-e8cyX-28" target="hgFu8f6doZ0GLa-e8cyX-31" edge="1">
          <mxGeometry relative="1" as="geometry" />
        </mxCell>
        <mxCell id="hgFu8f6doZ0GLa-e8cyX-28" value="Ask user to make a guess" style="whiteSpace=wrap;html=1;rounded=1;" parent="1" vertex="1">
          <mxGeometry x="350" y="430" width="120" height="60" as="geometry" />
        </mxCell>
        <mxCell id="hgFu8f6doZ0GLa-e8cyX-34" value="" style="edgeStyle=orthogonalEdgeStyle;rounded=0;orthogonalLoop=1;jettySize=auto;html=1;" parent="1" source="hgFu8f6doZ0GLa-e8cyX-31" target="hgFu8f6doZ0GLa-e8cyX-33" edge="1">
          <mxGeometry relative="1" as="geometry">
            <Array as="points">
              <mxPoint x="570" y="585" />
            </Array>
          </mxGeometry>
        </mxCell>
        <mxCell id="hgFu8f6doZ0GLa-e8cyX-36" value="" style="edgeStyle=orthogonalEdgeStyle;rounded=0;orthogonalLoop=1;jettySize=auto;html=1;" parent="1" source="hgFu8f6doZ0GLa-e8cyX-31" target="hgFu8f6doZ0GLa-e8cyX-35" edge="1">
          <mxGeometry relative="1" as="geometry">
            <Array as="points">
              <mxPoint x="410" y="700" />
            </Array>
          </mxGeometry>
        </mxCell>
        <mxCell id="hgFu8f6doZ0GLa-e8cyX-31" value="Did user guess right?" style="rhombus;whiteSpace=wrap;html=1;rounded=1;" parent="1" vertex="1">
          <mxGeometry x="330" y="520" width="160" height="130" as="geometry" />
        </mxCell>
        <mxCell id="hgFu8f6doZ0GLa-e8cyX-33" value="print(You got it right, the number is: num)" style="whiteSpace=wrap;html=1;rounded=1;" parent="1" vertex="1">
          <mxGeometry x="510" y="630" width="120" height="60" as="geometry" />
        </mxCell>
        <mxCell id="hgFu8f6doZ0GLa-e8cyX-40" value="" style="edgeStyle=orthogonalEdgeStyle;rounded=0;orthogonalLoop=1;jettySize=auto;html=1;entryX=0;entryY=0.5;entryDx=0;entryDy=0;" parent="1" source="hgFu8f6doZ0GLa-e8cyX-35" target="hgFu8f6doZ0GLa-e8cyX-31" edge="1">
          <mxGeometry relative="1" as="geometry">
            <mxPoint x="160" y="570" as="targetPoint" />
            <Array as="points">
              <mxPoint x="161" y="700" />
              <mxPoint x="161" y="585" />
            </Array>
          </mxGeometry>
        </mxCell>
        <mxCell id="hgFu8f6doZ0GLa-e8cyX-35" value="decrease attempts left by 1" style="whiteSpace=wrap;html=1;rounded=1;" parent="1" vertex="1">
          <mxGeometry x="245" y="670" width="120" height="60" as="geometry" />
        </mxCell>
        <mxCell id="hgFu8f6doZ0GLa-e8cyX-37" value="Yes" style="text;html=1;strokeColor=none;fillColor=none;align=center;verticalAlign=middle;whiteSpace=wrap;rounded=0;" parent="1" vertex="1">
          <mxGeometry x="490" y="550" width="60" height="30" as="geometry" />
        </mxCell>
        <mxCell id="hgFu8f6doZ0GLa-e8cyX-38" value="No" style="text;html=1;strokeColor=none;fillColor=none;align=center;verticalAlign=middle;whiteSpace=wrap;rounded=0;" parent="1" vertex="1">
          <mxGeometry x="280" y="640" width="60" height="30" as="geometry" />
        </mxCell>
        <mxCell id="hgFu8f6doZ0GLa-e8cyX-41" value="Pick difficulty level:&lt;br style=&quot;border-color: var(--border-color);&quot;&gt;easy or hard?" style="rhombus;whiteSpace=wrap;html=1;rounded=1;" parent="1" vertex="1">
          <mxGeometry x="340" y="180" width="170" height="95" as="geometry" />
        </mxCell>
      </root>
    </mxGraphModel>
  </diagram>
</mxfile>
